<?xml version="1.0" encoding="UTF-8" standalone="no"?>
<!-- Created with Inkscape (http://www.inkscape.org/) -->

<svg
   xmlns:osb="http://www.openswatchbook.org/uri/2009/osb"
   xmlns:dc="http://purl.org/dc/elements/1.1/"
   xmlns:cc="http://creativecommons.org/ns#"
   xmlns:rdf="http://www.w3.org/1999/02/22-rdf-syntax-ns#"
   xmlns:svg="http://www.w3.org/2000/svg"
   xmlns="http://www.w3.org/2000/svg"
   xmlns:sodipodi="http://sodipodi.sourceforge.net/DTD/sodipodi-0.dtd"
   xmlns:inkscape="http://www.inkscape.org/namespaces/inkscape"
   version="1.1"
   id="svg2"
   width="88.770164"
   height="88.770164"
   viewBox="0 0 88.770165 88.770165"
   sodipodi:docname="GLOBO_TK.svg"
   inkscape:version="0.92.4 (5da689c313, 2019-01-14)">
  <metadata
     id="metadata8">
    <rdf:RDF>
      <cc:Work
         rdf:about="">
        <dc:format>image/svg+xml</dc:format>
        <dc:type
           rdf:resource="http://purl.org/dc/dcmitype/StillImage" />
        <dc:title></dc:title>
      </cc:Work>
    </rdf:RDF>
  </metadata>
  <defs
     id="defs6">
    <linearGradient
       id="linearGradient4144"
       osb:paint="solid">
      <stop
         style="stop-color:#550000;stop-opacity:1;"
         offset="0"
         id="stop4142" />
    </linearGradient>
    <linearGradient
       id="linearGradient4138"
       osb:paint="solid">
      <stop
         style="stop-color:#550000;stop-opacity:1;"
         offset="0"
         id="stop4136" />
    </linearGradient>
  </defs>
  <sodipodi:namedview
     pagecolor="#ffffff"
     bordercolor="#666666"
     borderopacity="1"
     objecttolerance="10"
     gridtolerance="10"
     guidetolerance="10"
     inkscape:pageopacity="0"
     inkscape:pageshadow="2"
     inkscape:window-width="1680"
     inkscape:window-height="946"
     id="namedview4"
     showgrid="false"
     inkscape:zoom="9.8627186"
     inkscape:cx="40.201134"
     inkscape:cy="39.336083"
     inkscape:window-x="-8"
     inkscape:window-y="-8"
     inkscape:window-maximized="1"
     inkscape:current-layer="g4500"
     showguides="true"
     inkscape:guide-bbox="true"
     inkscape:snap-bbox="false"
     inkscape:snap-bbox-edge-midpoints="false"
     inkscape:snap-global="false"
     fit-margin-top="0"
     fit-margin-left="0"
     fit-margin-right="0"
     fit-margin-bottom="0" />
  <g
     inkscape:groupmode="layer"
     id="layer1"
     inkscape:label="Layer 1"
     style="display:inline"
     transform="translate(-37.348569,-7.5264591)" />
  <g
     inkscape:groupmode="layer"
     id="layer2"
     inkscape:label="Layer 2"
     style="display:inline"
     transform="translate(-37.348569,-7.5264591)" />
  <g
     id="g4500"
     transform="translate(-37.348569,-7.5264591)">
    <g
       id="g4503"
       transform="matrix(2.8917923,0,0,2.8917923,-127.46327,-125.36566)">
      <g
         id="g4508">
        <circle
           style="opacity:1;fill:#0b0b0b;fill-opacity:1;fill-rule:nonzero;stroke:none;stroke-width:0.084;stroke-miterlimit:4;stroke-dasharray:none;stroke-opacity:1"
           id="path4465-3"
           cx="72.341614"
           cy="61.303574"
           r="15.348641"
           inkscape:transform-center-x="0.54829431"
           inkscape:transform-center-y="-0.94704895" />
        <path
           inkscape:connector-curvature="0"
           id="path4455-5"
           d="m 72.344259,51.955087 a 9.2920914,9.2920914 0 0 0 -9.29297,9.291015 9.2920914,9.2920914 0 0 0 9.29297,9.292969 9.2920914,9.2920914 0 0 0 9.291019,-9.292969 9.2920914,9.2920914 0 0 0 -9.291019,-9.291015 z m -0.49219,1.630859 a 7.7035131,7.7035131 0 0 1 0.004,0 v 3.289062 a 7.9127836,4.3133702 0 0 1 -0.0352,0 7.9127836,4.3133702 0 0 1 -0.7832,-0.06445 7.9127836,4.3133702 0 0 1 -0.76562,-0.107421 7.9127836,4.3133702 0 0 1 -0.74415,-0.146485 7.9127836,4.3133702 0 0 1 -0.2539,-0.06641 3.8528931,8.1620502 0 0 1 1.69531,-2.779297 7.7035131,7.7035131 0 0 1 0.88281,-0.125 z m 0.97266,0.002 a 7.7035131,7.7035131 0 0 1 0.96289,0.123047 3.8528931,8.1620502 0 0 1 1.73438,2.882812 7.9127836,4.3133702 0 0 1 -0.043,0.0098 7.9127836,4.3133702 0 0 1 -0.75196,0.134766 7.9127836,4.3133702 0 0 1 -0.77148,0.0957 7.9127836,4.3133702 0 0 1 -0.78516,0.05078 7.9127836,4.3133702 0 0 1 -0.3457,0.0078 z m 2.69922,0.667969 a 7.7035131,7.7035131 0 0 1 2.29297,1.566406 7.9127836,4.3133702 0 0 1 -0.28711,0.138672 7.9127836,4.3133702 0 0 1 -0.64453,0.251953 7.9127836,4.3133702 0 0 1 -0.38477,0.119141 4.9428563,9.1506214 0 0 0 -0.97656,-2.076172 z m -6.43555,0.07227 a 4.9428563,9.1506214 0 0 0 -0.87305,1.83789 7.9127836,4.3133702 0 0 1 -0.0742,-0.02344 7.9127836,4.3133702 0 0 1 -0.62891,-0.259766 7.9127836,4.3133702 0 0 1 -0.39453,-0.201172 7.7035131,7.7035131 0 0 1 1.9707,-1.353515 z m -2.64648,2.078124 a 9.2276888,5.3240991 0 0 0 0.38086,0.19336 9.2276888,5.3240991 0 0 0 0.75,0.310547 9.2276888,5.3240991 0 0 0 0.36523,0.121093 4.9428563,9.1506214 0 0 0 -0.54297,3.761719 h -2.67773 a 7.7035131,7.7035131 0 0 1 1.72461,-4.386719 z m 12.00195,0.123047 a 7.7035131,7.7035131 0 0 1 1.634769,4.263672 h -2.816409 a 4.9428563,9.1506214 0 0 0 -0.50781,-3.626953 9.2276888,5.3240991 0 0 0 0.22851,-0.06445 9.2276888,5.3240991 0 0 0 0.78711,-0.277344 9.2276888,5.3240991 0 0 0 0.67383,-0.294922 z m -9.43164,0.810547 a 9.2276888,5.3240991 0 0 0 0.20117,0.05273 9.2276888,5.3240991 0 0 0 0.87695,0.167968 9.2276888,5.3240991 0 0 0 0.89844,0.115235 9.2276888,5.3240991 0 0 0 0.86719,0.06055 v 3.05664 h -3.31641 a 3.8528931,8.1620502 0 0 1 0.47266,-3.453125 z m 6.75391,0.07617 a 3.8528931,8.1620502 0 0 1 0.46093,3.376953 h -3.40234 v -3.046875 a 9.2276888,5.3240991 0 0 0 0.65625,-0.01953 9.2276888,5.3240991 0 0 0 0.91211,-0.07813 9.2276888,5.3240991 0 0 0 0.89258,-0.132812 9.2276888,5.3240991 0 0 0 0.48047,-0.09961 z m -11.04883,4.306641 h 2.68359 a 4.9428563,9.1506214 0 0 0 0.45899,3.380859 9.2276888,5.3240991 0 0 0 -0.47071,0.154297 9.2276888,5.3240991 0 0 0 -0.75,0.310547 9.2276888,5.3240991 0 0 0 -0.44922,0.228516 7.7035131,7.7035131 0 0 1 -1.47265,-4.074219 z m 3.81836,0 h 3.32031 v 2.703125 a 9.2276888,5.3240991 0 0 0 -0.13477,0.002 9.2276888,5.3240991 0 0 0 -0.91601,0.06445 9.2276888,5.3240991 0 0 0 -0.89844,0.115234 9.2276888,5.3240991 0 0 0 -0.87695,0.167969 9.2276888,5.3240991 0 0 0 -0.125,0.0332 3.8528931,8.1620502 0 0 1 -0.36914,-3.085937 z m 4.28906,0 h 3.40039 a 3.8528931,8.1620502 0 0 1 -0.36914,3.08789 9.2276888,5.3240991 0 0 0 -0.75391,-0.158203 9.2276888,5.3240991 0 0 0 -0.89257,-0.132812 9.2276888,5.3240991 0 0 0 -0.91211,-0.07813 9.2276888,5.3240991 0 0 0 -0.47266,-0.01367 z m 4.43945,0 h 2.814459 a 7.7035131,7.7035131 0 0 1 -1.482429,4.091797 9.2276888,5.3240991 0 0 0 -0.27539,-0.148438 9.2276888,5.3240991 0 0 0 -0.73437,-0.322266 9.2276888,5.3240991 0 0 0 -0.77539,-0.273437 4.9428563,9.1506214 0 0 0 0.45312,-3.347656 z m -4.43945,3.55664 a 7.9127836,4.3133702 0 0 1 0.16406,0.0039 7.9127836,4.3133702 0 0 1 0.78516,0.05078 7.9127836,4.3133702 0 0 1 0.77148,0.0957 7.9127836,4.3133702 0 0 1 0.75196,0.134766 7.9127836,4.3133702 0 0 1 0.33984,0.08398 3.8528931,8.1620502 0 0 1 -1.76172,3.169922 7.7035131,7.7035131 0 0 1 -1.05078,0.138672 z m -0.96875,0.0078 v 3.658203 a 7.7035131,7.7035131 0 0 1 -0.99805,-0.148437 3.8528931,8.1620502 0 0 1 -1.73047,-3.126954 7.9127836,4.3133702 0 0 1 0.21875,-0.05859 7.9127836,4.3133702 0 0 1 0.74414,-0.146485 7.9127836,4.3133702 0 0 1 0.76563,-0.107422 7.9127836,4.3133702 0 0 1 0.7832,-0.06445 7.9127836,4.3133702 0 0 1 0.2168,-0.0059 z m 4.71484,0.626953 a 7.9127836,4.3133702 0 0 1 0.13282,0.04102 7.9127836,4.3133702 0 0 1 0.64453,0.251953 7.9127836,4.3133702 0 0 1 0.59375,0.285156 7.9127836,4.3133702 0 0 1 0.0684,0.03906 7.7035131,7.7035131 0 0 1 -2.57422,1.804688 4.9428563,9.1506214 0 0 0 1.13476,-2.421875 z m -8.45898,0.06055 a 4.9428563,9.1506214 0 0 0 1.04687,2.257812 7.7035131,7.7035131 0 0 1 -2.34179,-1.685546 7.9127836,4.3133702 0 0 1 0.51367,-0.261719 7.9127836,4.3133702 0 0 1 0.62891,-0.259766 7.9127836,4.3133702 0 0 1 0.15234,-0.05078 z"
           style="opacity:1;fill:#ffffff;fill-opacity:1;fill-rule:nonzero;stroke:none;stroke-width:0.078;stroke-miterlimit:4;stroke-dasharray:none;stroke-opacity:1" />
      </g>
    </g>
  </g>
</svg>
